# xmcd
#
# Track frame offsets:
#        150
#        37530
#        45133
#        50105
#        77283
#        83198
#        85433
#        101593
#        127025
#        134425
#        166940
#        171563
#        176653
#        181043
#        185255
#        202953
#        205040
#        208435
#        212978
#        263573
#        265003
#        277158
#        279793
#
# Disc length: 3827 seconds
#
# Revision: 1
# Processed by: cddbd v1.5.1PL2 Copyright (c) Steve Scherf et al.
# Submitted via: ExactAudioCopy v0.95a5
#
DISCID=430ef117
DTITLE=Karl Richter - Weihnachts oratorium (Christmas Oratorio)
DYEAR=1900
DGENRE=
TTITLE0=Chor: Jauchzet, frohlocket, auf, preiset die Tage
TTITLE1=Rezitativ (Evangelist): Es begab sich aber zu der Zeit
TTITLE2=Rezitativ (Alt): Nun wird mein liebster Brautigam
TTITLE3=Arie (Alt): Bereite dich, Zion, mit zartlichen Trieben
TTITLE4=Choral: Wie soll ich dich empfangen
TTITLE5=Rezitativ (Evangelist): Und sie gebar ihren ersten Sohn
TTITLE6=Choral (Chor-Sopran) mit Rezitativ (Bass): Er ist auf Erden ko
TTITLE6=mmen arm/ Wer kann die Liebe recht erhohn
TTITLE7=Arie (Bass): Grosser Herr und starker Konig
TTITLE8=Choral: Ach mein herzliebes Jesulein
TTITLE9=Sinfonia
TTITLE10=Rezitativ (Evangelist): Und es waren Hirten in derselben Gege
TTITLE10=nd
TTITLE11=Choral: Brich an, o schones Morgenlicht
TTITLE12=Rezitativ (Evangelist, Der Engel): Und der Engen sprach zu ih
TTITLE12=nen
TTITLE13=Rezitativ (Bass): Was Gott dem Abraham verheissen
TTITLE14=Arie (Tenor): Frohe Hirten, eilt, ach eilet
TTITLE15=Rezitativ (Evangelist): Und das habt zum Zeichen
TTITLE16=Choral: Schaut hin, dort liegt im finstern Stall
TTITLE17=Rezitativ (Bass): So geht denn hin
TTITLE18=Arie (Alt): Schlafe, mein Liebster, geniesse der Ruh
TTITLE19=Rezitativ (Evangelist): Und alsobald war da bei dem Engel
TTITLE20=Chor: Ehre sei Gott in der Hohe
TTITLE21=Rezitativ (Bass): So recht, ihr Engel, jauchzt und singet
TTITLE22=Choral: Wir singen dir in deinem Heer
EXTD=
EXTT0=
EXTT1=
EXTT2=
EXTT3=
EXTT4=
EXTT5=
EXTT6=
EXTT7=
EXTT8=
EXTT9=
EXTT10=
EXTT11=
EXTT12=
EXTT13=
EXTT14=
EXTT15=
EXTT16=
EXTT17=
EXTT18=
EXTT19=
EXTT20=
EXTT21=
EXTT22=
PLAYORDER=
